{
    "asset" : {
        "generator" : "Khronos glTF Blender I/O v1.7.33",
        "version" : "2.0"
    },
    "scene" : 0,
    "scenes" : [
        {
            "name" : "Scene",
            "nodes" : [
                0
            ]
        }
    ],
    "nodes" : [
        {
            "mesh" : 0,
            "name" : "Cube.001",
            "scale" : [
                1,
                0.09999999403953552,
                0.5
            ]
        }
    ],
    "meshes" : [
        {
            "name" : "Cube.002",
            "primitives" : [
                {
                    "attributes" : {
                        "POSITION" : 0,
                        "NORMAL" : 1,
                        "TEXCOORD_0" : 2
                    },
                    "indices" : 3
                }
            ]
        }
    ],
    "accessors" : [
        {
            "bufferView" : 0,
            "componentType" : 5126,
            "count" : 1174,
            "max" : [
                0.9999586343765259,
                1.2642563581466675,
                0.9912664294242859
            ],
            "min" : [
                -1.0002140998840332,
                -0.9998826384544373,
                -0.9978123903274536
            ],
            "type" : "VEC3"
        },
        {
            "bufferView" : 1,
            "componentType" : 5126,
            "count" : 1174,
            "type" : "VEC3"
        },
        {
            "bufferView" : 2,
            "componentType" : 5126,
            "count" : 1174,
            "type" : "VEC2"
        },
        {
            "bufferView" : 3,
            "componentType" : 5123,
            "count" : 1764,
            "type" : "SCALAR"
        }
    ],
    "bufferViews" : [
        {
            "buffer" : 0,
            "byteLength" : 14088,
            "byteOffset" : 0
        },
        {
            "buffer" : 0,
            "byteLength" : 14088,
            "byteOffset" : 14088
        },
        {
            "buffer" : 0,
            "byteLength" : 9392,
            "byteOffset" : 28176
        },
        {
            "buffer" : 0,
            "byteLength" : 3528,
            "byteOffset" : 37568
        }
    ],
    "buffers" : [
        {
            "byteLength" : 41096,
            "uri" : "data:application/octet-stream;base64,"
        }
    ]
}
